<svg xmlns="http://www.w3.org/2000/svg" viewBox="0 0 140 270" role="img" aria-label="Volles Weizenbierglas">
  <defs>
    <linearGradient id="beer" x1="0" y1="0" x2="0" y2="1"><stop offset="0" stop-color="#ffd96a"/><stop offset=".42" stop-color="#f2a91f"/><stop offset="1" stop-color="#c56d08"/></linearGradient>
    <linearGradient id="foam" x1="0" y1="0" x2="0" y2="1"><stop offset="0" stop-color="#fff"/><stop offset="1" stop-color="#f5d99c"/></linearGradient>
    <linearGradient id="glass" x1="0" y1="0" x2="1" y2="0"><stop stop-color="#eafaff" stop-opacity=".6"/><stop offset=".3" stop-color="#fff" stop-opacity=".08"/><stop offset=".72" stop-color="#fff" stop-opacity=".12"/><stop offset="1" stop-color="#eaffff" stop-opacity=".55"/></linearGradient>
    <radialGradient id="base" cx=".5" cy=".25" r=".8"><stop stop-color="#fff" stop-opacity=".5"/><stop offset=".55" stop-color="#bdefff" stop-opacity=".3"/><stop offset="1" stop-color="#fff" stop-opacity=".55"/></radialGradient>
    <filter id="shadow" x="-50%" y="-30%" width="200%" height="190%"><feGaussianBlur stdDeviation="4"/></filter>
  </defs>
  <ellipse cx="70" cy="260" rx="47" ry="7" fill="#000" opacity=".35" filter="url(#shadow)"/>
  <path d="M23 47 Q22 39 31 38 H109 Q118 39 117 47 C115 92 108 137 97 180 C94 193 91 207 91 220 Q91 229 99 235 H41 Q49 229 49 220 C49 207 46 193 43 180 C32 137 25 92 23 47Z" fill="url(#glass)" stroke="#eefcff" stroke-width="4" stroke-linejoin="round"/>
  <path d="M30 61 H110 C107 105 101 141 92 178 C88 194 84 211 85 222 Q85 230 91 236 H49 Q55 230 55 222 C56 211 52 194 48 178 C39 141 33 105 30 61Z" fill="url(#beer)"/>
  <path d="M24 57 C18 46 22 32 34 27 C41 24 48 25 54 29 C59 14 73 5 88 9 C102 12 112 24 112 38 C112 48 107 56 101 61 C76 57 50 67 24 57Z" fill="url(#foam)" stroke="#fff9e9" stroke-width="3"/>
  <circle cx="39" cy="38" r="15" fill="#fff8e8"/><circle cx="63" cy="26" r="18" fill="#fff"/><circle cx="88" cy="28" r="19" fill="#fffdf6"/><circle cx="105" cy="43" r="12" fill="#fff8e8"/>
  <path d="M29 67 C48 76 71 65 88 70 C97 73 105 72 109 69 L106 86 C92 91 82 85 70 86 C56 87 45 94 32 86Z" fill="#fff0c6" opacity=".95"/>
  <path d="M35 73 C37 111 42 145 50 178 C54 195 60 215 58 225" fill="none" stroke="#fff" stroke-width="6" stroke-linecap="round" opacity=".42"/>
  <path d="M96 78 C94 113 89 145 82 176" fill="none" stroke="#fff" stroke-width="4" stroke-linecap="round" opacity=".2"/>
  <g fill="#fff1b9" opacity=".78"><circle cx="61" cy="104" r="2.5"/><circle cx="79" cy="124" r="2"/><circle cx="56" cy="149" r="2"/><circle cx="76" cy="170" r="2.5"/><circle cx="66" cy="198" r="2"/></g>
  <path d="M49 232 C45 235 37 239 31 248 C27 255 35 262 70 263 C105 262 113 255 109 248 C103 239 95 235 91 232Z" fill="url(#base)" stroke="#e9fbff" stroke-width="4"/>
  <ellipse cx="70" cy="247" rx="31" ry="8" fill="#fff" opacity=".16"/>
  <ellipse cx="70" cy="256" rx="37" ry="5" fill="#fff" opacity=".22"/>
</svg>