<svg xmlns="http://www.w3.org/2000/svg" viewBox="0 0 512 512"><defs><linearGradient id="g" x1="0" y1="0" x2="0" y2="1"><stop offset="0" stop-color="#ffd978"/><stop offset="1" stop-color="#e79a22"/></linearGradient></defs><rect width="512" height="512" rx="112" fill="#120f0a"/><circle cx="256" cy="256" r="198" fill="#21180d" stroke="#4a3520" stroke-width="8"/><path d="M173 127h131c22 0 39 18 37 40l-19 238c-2 20-18 36-38 36h-91c-20 0-36-16-38-36l-19-238c-2-22 15-40 37-40z" fill="url(#g)" stroke="#fff0c2" stroke-width="12"/><path d="M157 178h163" stroke="#fff5d8" stroke-width="18" stroke-linecap="round" opacity=".95"/><path d="M322 195h32c35 0 63 29 63 64v49c0 35-28 64-63 64h-44" fill="none" stroke="#fff0c2" stroke-width="24" stroke-linecap="round"/><path d="M174 148c9-36 39-64 75-64 22 0 42 10 55 26 9-6 20-10 32-10 32 0 58 26 58 58 0 11-3 21-8 30H164c2-14 5-28 10-40z" fill="#fff7e4"/><text x="238" y="325" text-anchor="middle" font-family="system-ui,-apple-system,sans-serif" font-size="96" font-weight="900" fill="#4a2d06">+1</text></svg>